<?xml version="1.0" encoding="UTF-8"?>
<!DOCTYPE svg PUBLIC "-//W3C//DTD SVG 1.1//EN" "http://www.w3.org/Graphics/SVG/1.1/DTD/svg11.dtd">
<!-- Creator: CorelDRAW 2020 (64-Bit) -->
<svg xmlns="http://www.w3.org/2000/svg" xml:space="preserve" width="50.8mm" height="67.7332mm" version="1.1" style="shape-rendering:geometricPrecision; text-rendering:geometricPrecision; image-rendering:optimizeQuality; fill-rule:evenodd; clip-rule:evenodd"
viewBox="0 0 5080 6773.32"
 xmlns:xlink="http://www.w3.org/1999/xlink"
 xmlns:xodm="http://www.corel.com/coreldraw/odm/2003">
 <defs>
  <style type="text/css">
   <![CDATA[
    .fil2 {fill:#FEFEFE;fill-rule:nonzero}
    .fil0 {fill:#FAE0E9;fill-rule:nonzero}
    .fil3 {fill:#BAE1EA;fill-rule:nonzero}
    .fil1 {fill:#313234;fill-rule:nonzero}
   ]]>
  </style>
 </defs>
 <g id="Layer_x0020_1">
  <metadata id="CorelCorpID_0Corel-Layer"/>
  <path class="fil0" d="M427.2 939.75c0,47.82 -38.77,86.59 -86.6,86.59 -47.83,0 -86.6,-38.77 -86.6,-86.59 0,-47.83 38.77,-86.6 86.6,-86.6 47.83,0 86.6,38.77 86.6,86.6z"/>
  <path class="fil0" d="M1405 939.75c0,47.82 -38.77,86.59 -86.6,86.59 -47.82,0 -86.59,-38.77 -86.59,-86.59 0,-47.83 38.77,-86.6 86.59,-86.6 47.83,0 86.6,38.77 86.6,86.6z"/>
  <path class="fil1" d="M698.74 947.47c13.29,-62.4 78.36,-98.02 138.78,-94.35 56.67,3.44 107.41,39.74 124.69,94.35 11.26,35.57 67.42,20.37 56.09,-15.46 -25.4,-80.3 -97.57,-132 -180.78,-137.05 -84.79,-5.15 -176.49,50.75 -194.86,137.05 -7.77,36.51 48.29,52.11 56.08,15.46l0 0z"/>
  <path class="fil1" d="M281.28 693.25c118.08,0 236.17,0 354.26,0 37.42,0 37.48,-58.16 0,-58.16 -118.09,0 -236.18,0 -354.26,0 -37.43,0 -37.49,58.16 0,58.16l0 0z"/>
  <path class="fil1" d="M520.13 799.91l-123.45 0c-45.24,0 -81.92,-36.69 -81.92,-81.92l0 -53.82 287.3 0 0 53.82c0,45.23 -36.68,81.92 -81.93,81.92z"/>
  <path class="fil1" d="M1025.42 693.25c118.09,0 236.17,0 354.26,0 37.43,0 37.49,-58.16 0,-58.16 -118.09,0 -236.17,0 -354.26,0 -37.43,0 -37.49,58.16 0,58.16l0 0z"/>
  <path class="fil1" d="M1264.29 799.91l-123.47 0c-45.24,0 -81.91,-36.69 -81.91,-81.92l0 -53.82 287.29 0 0 53.82c0,45.23 -36.68,81.92 -81.91,81.92z"/>
  <path class="fil2" d="M555.18 703.68c0,13.18 -10.69,23.85 -23.87,23.85 -13.19,0 -23.86,-10.67 -23.86,-23.85 0,-13.19 10.67,-23.88 23.86,-23.88 13.18,0 23.87,10.69 23.87,23.88z"/>
  <path class="fil2" d="M1308.01 703.68c0,13.18 -10.69,23.85 -23.86,23.85 -13.18,0 -23.87,-10.67 -23.87,-23.85 0,-13.19 10.69,-23.88 23.87,-23.88 13.17,0 23.86,10.69 23.86,23.88z"/>
  <path class="fil1" d="M446.98 4568.19c-24.96,31.36 -52.21,54.55 -86.61,73.43 -17.43,9.59 -30.41,15.13 -48.96,20.98 -9.41,2.98 -18.97,5.48 -28.63,7.51 -11.18,2.38 -16.99,3.2 -26.42,4.1 -15.64,1.5 -29.09,12.29 -29.09,29.09 0,14.56 13.36,30.58 29.09,29.08 89.87,-8.61 175.18,-52.01 231.75,-123.07 9.77,-12.27 11.98,-29.13 0,-41.12 -10.14,-10.13 -31.29,-12.35 -41.13,0l0 0z"/>
  <path class="fil1" d="M1196.17 4617.77c54.99,64.89 136.21,103.76 220.7,109.25 15.69,1.02 29.08,-14.11 29.08,-29.08 0,-16.59 -13.34,-28.06 -29.08,-29.09 -30.96,-2 -68.54,-12.17 -97.06,-26.72 -33.39,-17.04 -58.1,-36.68 -82.51,-65.49 -10.17,-11.99 -30.68,-10.45 -41.13,0 -11.89,11.89 -10.19,29.11 0,41.13l0 0z"/>
  <path class="fil1" d="M573.54 4764.81c0,74.4 -60.32,134.72 -134.73,134.72 -74.41,0 -134.73,-60.32 -134.73,-134.72 0,-74.41 60.32,-134.74 134.73,-134.74 74.41,0 134.73,60.33 134.73,134.74z"/>
  <path class="fil2" d="M526.24 4721.09c0,24.14 -19.57,43.72 -43.71,43.72 -24.15,0 -43.72,-19.58 -43.72,-43.72 0,-24.15 19.57,-43.71 43.72,-43.71 24.14,0 43.71,19.56 43.71,43.71z"/>
  <path class="fil1" d="M1360.92 4764.81c0,74.4 -60.32,134.72 -134.74,134.72 -74.41,0 -134.73,-60.32 -134.73,-134.72 0,-74.41 60.32,-134.74 134.73,-134.74 74.42,0 134.74,60.33 134.74,134.74z"/>
  <path class="fil2" d="M1313.62 4721.09c0,24.14 -19.58,43.72 -43.71,43.72 -24.16,0 -43.73,-19.58 -43.73,-43.72 0,-24.15 19.57,-43.71 43.73,-43.71 24.13,0 43.71,19.56 43.71,43.71z"/>
  <path class="fil0" d="M429.22 4992.25c0,47.83 -38.77,86.61 -86.6,86.61 -47.83,0 -86.61,-38.78 -86.61,-86.61 0,-47.83 38.78,-86.6 86.61,-86.6 47.83,0 86.6,38.77 86.6,86.6z"/>
  <path class="fil0" d="M1407.02 4992.25c0,47.83 -38.76,86.61 -86.6,86.61 -47.83,0 -86.6,-38.78 -86.6,-86.61 0,-47.83 38.77,-86.6 86.6,-86.6 47.84,0 86.6,38.77 86.6,86.6z"/>
  <path class="fil1" d="M678.54 4924.18c0.05,-36.04 40.28,-56.68 68.34,-32.26 16.16,14.1 25.76,33.26 43.54,46 18.18,13.05 40.74,18.17 62.32,11.05 16.86,-5.58 29.52,-17.97 40.23,-31.63 9.88,-12.57 18.79,-29.14 33.98,-36.02 32.58,-14.73 61.77,12.52 59.58,45.26 -2.5,37.36 55.66,37.21 58.15,0 3.64,-54.4 -38.32,-103.46 -92.88,-107.03 -26.43,-1.72 -52.71,7.37 -72.86,24.4 -15.18,12.83 -23.74,37.05 -40.49,47.38 -16.49,10.2 -33.06,-21.15 -42.44,-31.96 -18.45,-21.31 -43.67,-34.55 -71.97,-36.18 -57.55,-3.32 -103.59,44.62 -103.66,100.99 -0.04,37.43 58.12,37.49 58.16,0l0 0z"/>
  <path class="fil1" d="M2219.33 4732.06c0,74.4 -60.32,134.72 -134.72,134.72 -74.42,0 -134.74,-60.32 -134.74,-134.72 0,-74.41 60.32,-134.74 134.74,-134.74 74.4,0 134.72,60.33 134.72,134.74z"/>
  <path class="fil2" d="M2172.04 4688.34c0,24.14 -19.57,43.72 -43.72,43.72 -24.15,0 -43.71,-19.58 -43.71,-43.72 0,-24.15 19.56,-43.71 43.71,-43.71 24.15,0 43.72,19.56 43.72,43.71z"/>
  <path class="fil1" d="M3006.7 4732.06c0,74.4 -60.32,134.72 -134.72,134.72 -74.41,0 -134.73,-60.32 -134.73,-134.72 0,-74.41 60.32,-134.74 134.73,-134.74 74.4,0 134.72,60.33 134.72,134.74z"/>
  <path class="fil2" d="M2959.4 4688.34c0,24.14 -19.56,43.72 -43.71,43.72 -24.13,0 -43.71,-19.58 -43.71,-43.72 0,-24.15 19.58,-43.71 43.71,-43.71 24.15,0 43.71,19.56 43.71,43.71z"/>
  <path class="fil0" d="M2084.61 4959.5c0,47.83 -38.78,86.61 -86.6,86.61 -47.82,0 -86.61,-38.78 -86.61,-86.61 0,-47.83 38.79,-86.6 86.61,-86.6 47.82,0 86.6,38.77 86.6,86.6z"/>
  <path class="fil0" d="M3062.42 4959.5c0,47.83 -38.77,86.61 -86.6,86.61 -47.84,0 -86.61,-38.78 -86.61,-86.61 0,-47.83 38.77,-86.6 86.61,-86.6 47.83,0 86.6,38.77 86.6,86.6z"/>
  <path class="fil1" d="M2427.35 4937.51c19.25,-16.91 40.9,-30.67 64.12,-41.52 10.75,-5.01 21.98,-8.96 33.36,-12.31 9.19,-2.72 24.84,-8.86 34.25,-3.73 3.76,2.04 3.51,3 1.32,8.56 -4.19,10.69 -13.13,20.25 -20.94,28.39 -16.78,17.54 -37.16,32.2 -59.73,41.36 -34.55,14.03 -21.9,62.42 15.45,56.08 19.56,-3.32 44.1,1.82 58.18,17.85 11.42,13.02 14.15,35.11 3.23,48.59 -10.69,13.15 -34.09,12.6 -51.15,6.01 -26.02,-10.07 -46.3,-34.85 -64.61,-55.52 -10.43,-11.77 -30.5,-10.63 -41.13,0 -11.68,11.69 -10.45,29.33 0,41.13 27.92,31.49 59.84,65.03 102.81,74.02 40.71,8.53 86.89,-3.37 107.84,-42.13 19.67,-36.41 11.95,-83.27 -15.88,-113.23 -29.23,-31.46 -73.96,-39.72 -114.74,-32.8 5.17,18.7 10.31,37.4 15.45,56.08 35.29,-14.31 67.41,-35.03 92.45,-64.08 26.56,-30.81 49.82,-78.72 12.66,-111.89 -31.99,-28.56 -77.5,-17.04 -113.38,-3.14 -37.24,14.43 -70.67,34.79 -100.7,61.17 -11.79,10.36 -10.6,30.51 0,41.11 11.73,11.71 29.31,10.41 41.14,0l0 0z"/>
  <path class="fil1" d="M3955.99 4777.93c0,74.4 -60.33,134.72 -134.74,134.72 -74.41,0 -134.74,-60.32 -134.74,-134.72 0,-74.41 60.33,-134.74 134.74,-134.74 74.41,0 134.74,60.33 134.74,134.74z"/>
  <path class="fil2" d="M3908.68 4734.21c0,24.14 -19.58,43.72 -43.72,43.72 -24.14,0 -43.71,-19.58 -43.71,-43.72 0,-24.15 19.57,-43.71 43.71,-43.71 24.14,0 43.72,19.56 43.72,43.71z"/>
  <path class="fil1" d="M4743.36 4777.93c0,74.4 -60.32,134.72 -134.75,134.72 -74.4,0 -134.72,-60.32 -134.72,-134.72 0,-74.41 60.32,-134.74 134.72,-134.74 74.43,0 134.75,60.33 134.75,134.74z"/>
  <path class="fil2" d="M4696.06 4734.21c0,24.14 -19.58,43.72 -43.72,43.72 -24.15,0 -43.73,-19.58 -43.73,-43.72 0,-24.15 19.58,-43.71 43.73,-43.71 24.14,0 43.72,19.56 43.72,43.71z"/>
  <path class="fil0" d="M3821.25 5005.37c0,47.83 -38.77,86.61 -86.6,86.61 -47.82,0 -86.61,-38.78 -86.61,-86.61 0,-47.83 38.79,-86.6 86.61,-86.6 47.83,0 86.6,38.77 86.6,86.6z"/>
  <path class="fil0" d="M4799.06 5005.37c0,47.83 -38.79,86.61 -86.61,86.61 -47.82,0 -86.58,-38.78 -86.58,-86.61 0,-47.83 38.76,-86.6 86.58,-86.6 47.82,0 86.61,38.77 86.61,86.6z"/>
  <path class="fil1" d="M4386.93 4876.24c14.13,-35.53 19.39,-82.8 -20.34,-96.1 -28.87,-9.66 -56.53,14.69 -83.42,28.97 -35.45,18.82 -79.5,20.55 -116.32,4.57 -28.48,-12.38 -58.14,-35.17 -87.06,-23.84 -15.06,5.9 -25.59,20.59 -29.29,36.32 -3.7,15.75 -1.31,32.39 3.7,47.78 27.07,83.18 118.51,119.54 200.13,105.6 47.27,-8.1 91.85,-35.54 118.48,-75.7 4.85,-7.33 9.89,-16.93 14.12,-27.6z"/>
  <path class="fil1" d="M573.54 6053.37c0,74.43 -60.32,134.75 -134.73,134.75 -74.41,0 -134.73,-60.32 -134.73,-134.75 0,-74.4 60.32,-134.72 134.73,-134.72 74.41,0 134.73,60.32 134.73,134.72z"/>
  <path class="fil2" d="M526.24 6009.67c0,24.13 -19.57,43.7 -43.71,43.7 -24.15,0 -43.72,-19.57 -43.72,-43.7 0,-24.15 19.57,-43.73 43.72,-43.73 24.14,0 43.71,19.58 43.71,43.73z"/>
  <path class="fil1" d="M1360.92 6053.37c0,74.43 -60.32,134.75 -134.74,134.75 -74.41,0 -134.73,-60.32 -134.73,-134.75 0,-74.4 60.32,-134.72 134.73,-134.72 74.42,0 134.74,60.32 134.74,134.72z"/>
  <path class="fil2" d="M1313.62 6009.67c0,24.13 -19.58,43.7 -43.71,43.7 -24.16,0 -43.73,-19.57 -43.73,-43.7 0,-24.15 19.57,-43.73 43.73,-43.73 24.13,0 43.71,19.58 43.71,43.73z"/>
  <path class="fil0" d="M429.22 6280.82c0,47.82 -38.77,86.6 -86.6,86.6 -47.83,0 -86.61,-38.78 -86.61,-86.6 0,-47.83 38.78,-86.6 86.61,-86.6 47.83,0 86.6,38.77 86.6,86.6z"/>
  <path class="fil0" d="M1407.02 6280.82c0,47.82 -38.76,86.6 -86.6,86.6 -47.83,0 -86.6,-38.78 -86.6,-86.6 0,-47.83 38.77,-86.6 86.6,-86.6 47.84,0 86.6,38.77 86.6,86.6z"/>
  <path class="fil1" d="M668.23 6201.29c109.51,0 219.03,0 328.54,0 37.41,0 37.47,-58.15 0,-58.15 -109.51,0 -219.03,0 -328.54,0 -37.43,0 -37.48,58.15 0,58.15l0 0z"/>
  <polygon class="fil3" points="2023.18,6333.34 2150.31,6333.34 2150.31,6036.1 2023.18,6036.1 "/>
  <polygon class="fil3" points="2848.69,6333.34 2975.82,6333.34 2975.82,6036.1 2848.69,6036.1 "/>
  <path class="fil1" d="M2345 6121.6c-8.21,16.61 -13.9,35.11 -11.69,53.51 2.23,18.38 13.78,36.43 31.34,42.31 28.87,9.67 56.54,-14.7 83.43,-28.97 35.44,-18.82 79.48,-20.56 116.3,-4.56 28.48,12.36 58.16,35.15 87.07,23.81 15.08,-5.89 25.59,-20.56 29.29,-36.29 3.71,-15.77 1.31,-32.41 -3.68,-47.78 -48.08,-147.63 -270.88,-126.02 -332.06,-2.03z"/>
  <path class="fil1" d="M1918.84 5875.36c-7.35,105.49 78.71,197.51 184.23,197.5 105.49,-0.01 191.55,-92.05 184.14,-197.56 -1.09,-15.66 -12.57,-29.08 -29.08,-29.08 -14.88,0 -30.17,13.34 -29.08,29.08 5.19,73.98 -50.37,139.39 -125.98,139.4 -75.61,0.02 -131.23,-65.35 -126.07,-139.34 1.1,-15.69 -14.14,-29.07 -29.08,-29.07 -16.65,0 -27.98,13.35 -29.08,29.07l0 0z"/>
  <path class="fil1" d="M3022.12 5875.36c5.17,73.99 -50.45,139.36 -126.07,139.34 -75.59,-0.01 -131.19,-65.41 -125.98,-139.4 1.09,-15.68 -14.15,-29.08 -29.08,-29.08 -16.66,0 -27.98,13.36 -29.08,29.08 -7.4,105.51 78.65,197.55 184.14,197.56 105.53,0.01 191.6,-92.01 184.23,-197.5 -1.08,-15.68 -12.58,-29.07 -29.08,-29.07 -14.88,0 -30.18,13.33 -29.08,29.07l0 0z"/>
  <path class="fil1" d="M4558.37 5914.09c55.28,58.02 132.38,92.1 212.33,95.39 15.19,0.63 29.75,-13.82 29.06,-29.08 -0.73,-16.29 -12.78,-28.39 -29.06,-29.06 -4.14,-0.18 -8.24,-0.41 -12.34,-0.73 -2.04,-0.19 -4.08,-0.36 -6.14,-0.59 0.15,0.02 -7.67,-0.97 -5.29,-0.61 2.2,0.31 -3.24,-0.55 -3.76,-0.64 -2.03,-0.36 -4.06,-0.72 -6.07,-1.09 -4.04,-0.79 -8.05,-1.66 -12.05,-2.59 -8.5,-2.05 -16.91,-4.46 -25.17,-7.27 -3.9,-1.32 -7.77,-2.72 -11.6,-4.23 -1.91,-0.75 -3.84,-1.47 -5.72,-2.3 3.39,1.46 -1.89,-0.9 -2.95,-1.38 -32.45,-14.93 -56.36,-32.01 -80.11,-56.96 -10.83,-11.37 -30.22,-10.91 -41.13,0 -11.35,11.37 -10.86,29.72 0,41.14l0 0z"/>
  <path class="fil1" d="M3955.99 6066.49c0,74.43 -60.33,134.75 -134.74,134.75 -74.41,0 -134.74,-60.32 -134.74,-134.75 0,-74.4 60.33,-134.72 134.74,-134.72 74.41,0 134.74,60.32 134.74,134.72z"/>
  <path class="fil2" d="M3908.68 6022.79c0,24.13 -19.58,43.7 -43.72,43.7 -24.14,0 -43.71,-19.57 -43.71,-43.7 0,-24.15 19.57,-43.73 43.71,-43.73 24.14,0 43.72,19.58 43.72,43.73z"/>
  <path class="fil1" d="M4743.36 6066.49c0,74.43 -60.32,134.75 -134.75,134.75 -74.4,0 -134.72,-60.32 -134.72,-134.75 0,-74.4 60.32,-134.72 134.72,-134.72 74.43,0 134.75,60.32 134.75,134.72z"/>
  <path class="fil2" d="M4696.06 6022.79c0,24.13 -19.58,43.7 -43.72,43.7 -24.15,0 -43.73,-19.57 -43.73,-43.7 0,-24.15 19.58,-43.73 43.73,-43.73 24.14,0 43.72,19.58 43.72,43.73z"/>
  <path class="fil0" d="M3821.25 6293.94c0,47.82 -38.77,86.6 -86.6,86.6 -47.82,0 -86.61,-38.78 -86.61,-86.6 0,-47.83 38.79,-86.6 86.61,-86.6 47.83,0 86.6,38.77 86.6,86.6z"/>
  <path class="fil0" d="M4799.06 6293.94c0,47.82 -38.79,86.6 -86.61,86.6 -47.82,0 -86.58,-38.78 -86.58,-86.6 0,-47.83 38.76,-86.6 86.58,-86.6 47.82,0 86.61,38.77 86.61,86.6z"/>
  <path class="fil1" d="M4059.12 6172.7c-14.1,35.52 -19.38,82.79 20.34,96.1 28.89,9.66 56.54,-14.69 83.44,-28.98 35.45,-18.8 79.49,-20.53 116.3,-4.57 28.5,12.39 58.16,35.18 87.08,23.84 15.06,-5.89 25.58,-20.56 29.29,-36.31 3.7,-15.75 1.31,-32.4 -3.7,-47.78 -27.08,-83.17 -118.52,-119.55 -200.13,-105.58 -47.29,8.1 -91.85,35.53 -118.49,75.68 -4.85,7.32 -9.89,16.94 -14.13,27.6z"/>
  <path class="fil1" d="M3809.45 5875.94c-51.94,55.78 -118.97,90.45 -195.23,101.45 -15.56,2.24 -24.1,21.98 -20.31,35.76 4.59,16.7 20.16,22.56 35.77,20.33 83.93,-12.13 163.18,-54.41 220.89,-116.41 10.69,-11.52 11.38,-29.74 0,-41.13 -10.83,-10.82 -30.39,-11.54 -41.12,0l0 0z"/>
  <path class="fil1" d="M2230.63 766.19c0,32.66 -11.48,62.34 -30.72,85.75 -24.9,-29.83 -62.18,-48.77 -103.95,-48.77 -41.75,0 -79.19,18.94 -103.93,48.77 -19.4,-23.41 -30.87,-53.09 -30.87,-85.75 0,-74.41 60.4,-134.81 134.8,-134.81 74.43,0 134.67,60.4 134.67,134.81z"/>
  <path class="fil2" d="M2183.34 722.44c0,24.14 -19.57,43.72 -43.72,43.72 -24.14,0 -43.71,-19.58 -43.71,-43.72 0,-24.15 19.57,-43.71 43.71,-43.71 24.15,0 43.72,19.56 43.72,43.71z"/>
  <path class="fil1" d="M3015.44 766.19c0,32.66 -11.46,62.34 -30.7,85.75 -24.91,-29.83 -62.19,-48.77 -103.94,-48.77 -41.77,0 -79.21,18.94 -103.96,48.77 -19.39,-23.41 -30.85,-53.09 -30.85,-85.75 0,-74.41 60.39,-134.81 134.81,-134.81 74.39,0 134.64,60.4 134.64,134.81z"/>
  <path class="fil2" d="M2968.16 722.44c0,24.14 -19.57,43.72 -43.71,43.72 -24.15,0 -43.71,-19.58 -43.71,-43.72 0,-24.15 19.56,-43.71 43.71,-43.71 24.14,0 43.71,19.56 43.71,43.71z"/>
  <path class="fil0" d="M2084.61 993.59c0,47.83 -38.78,86.6 -86.6,86.6 -47.82,0 -86.61,-38.77 -86.61,-86.6 0,-47.82 38.79,-86.59 86.61,-86.59 47.82,0 86.6,38.77 86.6,86.59z"/>
  <path class="fil0" d="M3062.42 993.59c0,47.83 -38.77,86.6 -86.6,86.6 -47.84,0 -86.61,-38.77 -86.61,-86.6 0,-47.82 38.77,-86.59 86.61,-86.59 47.83,0 86.6,38.77 86.6,86.59z"/>
  <path class="fil1" d="M2293.49 818.86c23.35,92.13 114.69,155.88 208.5,154.9 90.09,-0.94 175.65,-62.99 189.13,-154.9 2.27,-15.52 -3.86,-31.26 -20.31,-35.78 -13.67,-3.77 -33.46,4.67 -35.78,20.31 -9.78,66.74 -66.22,111.51 -133.04,112.21 -68.63,0.72 -135.29,-44.65 -152.41,-112.21 -9.19,-36.25 -65.3,-20.89 -56.09,15.47l0 0z"/>
  <path class="fil1" d="M2003.48 666.48c-0.37,-0.04 -0.76,-0.09 -1.15,-0.13 2.12,0.28 4.23,0.56 6.33,0.85 -8.88,-1.24 -17.47,-3.6 -25.76,-7.01 1.9,0.81 3.8,1.6 5.7,2.4 -8.6,-3.65 -16.66,-8.35 -24.08,-14.03 1.59,1.25 3.2,2.49 4.81,3.72 -7.05,-5.51 -13.37,-11.81 -18.89,-18.87 1.25,1.61 2.49,3.22 3.73,4.81 -2.82,-3.69 -5.4,-7.57 -7.73,-11.62 -6.2,-10.81 -21.83,-15.49 -32.6,-8.54 -10.92,7.04 -15.19,21.03 -8.54,32.6 10.12,17.6 24.46,32.24 41.3,43.46 17.18,11.44 36.6,17.46 56.88,20.03 5.62,0.69 13.05,-3.18 16.85,-6.98 4.15,-4.14 7.25,-10.92 6.98,-16.86 -0.27,-6.16 -2.29,-12.54 -6.98,-16.85 -4.96,-4.56 -10.2,-6.13 -16.85,-6.98l0 0z"/>
  <path class="fil1" d="M1989 689.39c-2.86,2.33 0.58,0.18 0.61,-0.43 -0.01,0.41 -2.5,1.8 -2.89,2.05 -2.19,1.51 -4.46,2.93 -6.75,4.24 -2.06,1.18 -4.17,2.28 -6.3,3.29 -0.54,0.27 -4.15,2.05 -1.19,0.63 2.92,-1.38 -0.66,0.26 -1.27,0.48 -4.69,1.77 -9.53,3.23 -14.45,4.34 -1,0.22 -6.55,0.61 -6.98,1.32 0.35,-0.56 4.89,-0.49 1.04,-0.14 -1.48,0.13 -2.96,0.28 -4.44,0.39 -4.73,0.31 -9.49,0.32 -14.22,0.03 -1.18,-0.08 -2.38,-0.17 -3.55,-0.29 -0.68,-0.06 -4.66,-0.66 -1.24,-0.09 3.74,0.61 -1.34,-0.28 -2.09,-0.42 -1.16,-0.22 -2.33,-0.46 -3.49,-0.71 -4.64,-1.05 -9.11,-2.51 -13.59,-4.04 -4.26,-1.5 2.58,1.31 -0.04,0.01 -1.06,-0.52 -2.15,-0.98 -3.22,-1.51 -2.39,-1.19 -4.71,-2.47 -7.01,-3.84 -10.74,-6.36 -26.62,-2.79 -32.6,8.54 -6.07,11.47 -2.91,25.81 8.55,32.6 47,27.83 107.04,21.37 148.81,-12.76 9.69,-7.92 8.83,-25.59 0,-33.69 -10.31,-9.46 -23.35,-8.46 -33.69,0l0 0z"/>
  <path class="fil1" d="M2994.22 714.15c20.3,-2.57 39.7,-8.59 56.88,-20.03 16.86,-11.22 31.21,-25.86 41.31,-43.46 6.21,-10.82 2.89,-26.56 -8.55,-32.6 -11.35,-5.99 -25.96,-3 -32.58,8.54 -2.34,4.05 -4.91,7.93 -7.74,11.62 1.25,-1.59 2.49,-3.2 3.73,-4.81 -5.51,7.06 -11.83,13.36 -18.9,18.87 1.63,-1.23 3.22,-2.47 4.83,-3.72 -7.42,5.68 -15.48,10.38 -24.1,14.03 1.9,-0.8 3.81,-1.59 5.7,-2.4 -8.27,3.41 -16.88,5.77 -25.75,7.01 2.1,-0.29 4.22,-0.57 6.32,-0.85 -0.37,0.04 -0.76,0.09 -1.15,0.13 -6.56,0.84 -11.97,2.12 -16.85,6.98 -4.13,4.15 -7.24,10.92 -6.96,16.85 0.25,6.16 2.28,12.56 6.96,16.86 4.31,3.96 10.74,7.75 16.85,6.98l0 0z"/>
  <path class="fil1" d="M2975.02 723.08c41.78,34.13 101.8,40.59 148.82,12.76 10.71,-6.34 15.54,-21.74 8.55,-32.6 -6.96,-10.79 -21.13,-15.33 -32.62,-8.54 -2.02,1.21 -4.1,2.37 -6.21,3.46 -1.07,0.52 -2.12,1.01 -3.2,1.53 -5.16,2.49 3.12,-1.01 -0.03,0.02 -4.51,1.49 -8.91,3.09 -13.55,4.16 -2.25,0.52 -5.59,1.82 -7.84,1.52 1.41,0.2 4.26,-0.45 1.04,-0.16 -1.18,0.1 -2.36,0.22 -3.54,0.31 -5.04,0.34 -10.09,0.34 -15.12,0.02 -1.17,-0.08 -2.37,-0.19 -3.54,-0.3 -0.72,-0.08 -4.6,-0.78 -1.24,-0.12 3.4,0.67 -0.59,-0.15 -1.24,-0.27 -1.16,-0.21 -2.33,-0.45 -3.48,-0.7 -4.92,-1.06 -9.78,-2.47 -14.49,-4.22 -0.33,-0.11 -3.31,-1.05 -3.33,-1.27 0.02,0.16 4.37,2.01 0.84,0.25 -2.14,-1.06 -4.25,-2.09 -6.33,-3.23 -2.31,-1.32 -4.57,-2.7 -6.79,-4.2 -0.98,-0.65 -1.93,-1.38 -2.9,-2.02 -2.8,-1.83 4.37,3.56 -0.1,-0.09 -9.64,-7.87 -24.4,-10.14 -33.7,0 -8.01,8.72 -10.3,25.26 0,33.69l0 0z"/>
  <path class="fil1" d="M3962.58 812.03c0,74.4 -60.33,134.72 -134.74,134.72 -74.4,0 -134.72,-60.32 -134.72,-134.72 0,-74.41 60.32,-134.74 134.72,-134.74 74.41,0 134.74,60.33 134.74,134.74z"/>
  <path class="fil2" d="M3915.27 768.31c0,24.14 -19.56,43.72 -43.71,43.72 -24.14,0 -43.72,-19.58 -43.72,-43.72 0,-24.15 19.58,-43.71 43.72,-43.71 24.15,0 43.71,19.56 43.71,43.71z"/>
  <path class="fil1" d="M4749.95 812.03c0,74.4 -60.32,134.72 -134.72,134.72 -74.41,0 -134.73,-60.32 -134.73,-134.72 0,-74.41 60.32,-134.74 134.73,-134.74 74.4,0 134.72,60.33 134.72,134.74z"/>
  <path class="fil2" d="M4702.65 768.31c0,24.14 -19.56,43.72 -43.71,43.72 -24.16,0 -43.71,-19.58 -43.71,-43.72 0,-24.15 19.55,-43.71 43.71,-43.71 24.15,0 43.71,19.56 43.71,43.71z"/>
  <path class="fil1" d="M4062.67 986.79c17.14,-69.6 84.36,-116.17 156.03,-117.84 71.67,-1.67 141.35,49.11 161.7,117.84l-317.73 0z"/>
  <path class="fil1" d="M4086.01 993.23c15.36,-58.5 70.79,-97.88 130.46,-100 62.47,-2.22 121.97,40.47 140.6,100 7.78,-10.21 15.55,-20.43 23.33,-30.63 -92.78,0 -185.59,0 -278.36,0 -13.12,0 -26.25,0 -39.37,0 -31.13,0 -31.18,48.38 0,48.38 92.79,0 185.56,0 278.36,0 13.13,0 26.25,0 39.37,0 15.26,0 28.05,-15.53 23.33,-30.62 -24.88,-79.42 -103.05,-138.51 -187.26,-135.51 -80.86,2.88 -156.2,55.91 -177.12,135.51 -7.93,30.14 38.73,43 46.66,12.87z"/>
  <path class="fil0" d="M3819.24 1039.46c0,47.83 -38.79,86.6 -86.62,86.6 -47.82,0 -86.58,-38.77 -86.58,-86.6 0,-47.82 38.76,-86.59 86.58,-86.59 47.83,0 86.62,38.77 86.62,86.59z"/>
  <path class="fil0" d="M4797.03 1039.46c0,47.83 -38.75,86.6 -86.58,86.6 -47.84,0 -86.61,-38.77 -86.61,-86.6 0,-47.82 38.77,-86.59 86.61,-86.59 47.83,0 86.58,38.77 86.58,86.59z"/>
  <path class="fil1" d="M3719.4 659.94c86.16,31.54 173.16,60.7 260.94,87.47 35.86,10.95 51.21,-45.17 15.45,-56.07 -87.76,-26.78 -174.78,-55.95 -260.93,-87.48 -14.76,-5.41 -31.87,6.04 -35.79,20.3 -4.46,16.21 5.5,30.35 20.33,35.78l0 0z"/>
  <path class="fil1" d="M4694.93 603.86c-86.17,31.53 -173.18,60.7 -260.93,87.48 -35.72,10.89 -20.49,67.03 15.45,56.07 87.76,-26.77 174.76,-55.93 260.94,-87.47 14.74,-5.39 24.71,-19.74 20.31,-35.78 -3.9,-14.2 -20.95,-25.73 -35.77,-20.3l0 0z"/>
  <path class="fil0" d="M429.22 2330.22c0,47.84 -38.77,86.6 -86.6,86.6 -47.83,0 -86.61,-38.76 -86.61,-86.6 0,-47.83 38.78,-86.6 86.61,-86.6 47.83,0 86.6,38.77 86.6,86.6z"/>
  <path class="fil0" d="M1407.02 2330.22c0,47.84 -38.76,86.6 -86.6,86.6 -47.83,0 -86.6,-38.76 -86.6,-86.6 0,-47.83 38.77,-86.6 86.6,-86.6 47.84,0 86.6,38.77 86.6,86.6z"/>
  <path class="fil1" d="M573.74 2093.14c0,74.41 -60.32,134.73 -134.73,134.73 -74.41,0 -134.74,-60.32 -134.74,-134.73 0,-74.42 60.33,-134.74 134.74,-134.74 74.41,0 134.73,60.32 134.73,134.74z"/>
  <path class="fil2" d="M526.44 2049.43c0,24.13 -19.57,43.71 -43.72,43.71 -24.15,0 -43.71,-19.58 -43.71,-43.71 0,-24.14 19.56,-43.72 43.71,-43.72 24.15,0 43.72,19.58 43.72,43.72z"/>
  <path class="fil1" d="M1361.12 2093.14c0,74.41 -60.33,134.73 -134.74,134.73 -74.41,0 -134.74,-60.32 -134.74,-134.73 0,-74.42 60.33,-134.74 134.74,-134.74 74.41,0 134.74,60.32 134.74,134.74z"/>
  <path class="fil2" d="M1313.81 2049.43c0,24.13 -19.58,43.71 -43.71,43.71 -24.14,0 -43.72,-19.58 -43.72,-43.71 0,-24.14 19.58,-43.72 43.72,-43.72 24.13,0 43.71,19.58 43.71,43.72z"/>
  <path class="fil1" d="M953.51 2360.34c-54.33,0 -108.65,0 -162.98,0 -57.86,0 -137.68,13.1 -162.63,-55.85 -17.02,-47.06 11.99,-99.4 60.37,-111.02 19.48,-4.67 42.04,-2.21 61.86,-2.21 64.28,0 128.53,0 192.79,0 38.66,0 74.37,15.69 89.45,53.97 21.82,55.39 -21.11,113.73 -78.86,115.11 -28.74,0.69 -28.85,45.44 0,44.74 60.08,-1.44 114.6,-42.95 126.55,-103.08 12.1,-61.05 -21.08,-122.61 -78.69,-146.04 -28.14,-11.45 -58.03,-9.44 -87.7,-9.44 -40.46,0 -80.91,0 -121.37,0 -27.78,0 -55.6,-0.43 -83.38,0 -54.31,0.89 -102.87,32.87 -122.45,84.1 -21.82,57.13 1.73,122.8 53.07,155.08 29.85,18.76 62.24,19.38 95.91,19.38 72.68,0 145.37,0 218.06,0 28.79,0 28.83,-44.74 0,-44.74z"/>
  <path class="fil1" d="M605.42 2295.03c145.49,0 290.97,0 436.46,0 28.8,0 28.84,-44.74 0,-44.74 -145.49,0 -290.97,0 -436.46,0 -28.79,0 -28.84,44.74 0,44.74l0 0z"/>
  <path class="fil1" d="M811.59 2172.95c0,63.98 0,127.96 0,191.96 0,28.78 44.74,28.82 44.74,0 0,-64 0,-127.98 0,-191.96 0,-28.78 -44.74,-28.84 -44.74,0l0 0z"/>
  <path class="fil1" d="M695.43 2176.32c-0.46,61.17 -0.93,122.36 -1.39,183.53 -0.22,28.8 44.52,28.83 44.74,0 0.46,-61.17 0.92,-122.36 1.38,-183.53 0.22,-28.8 -44.52,-28.82 -44.73,0l0 0z"/>
  <path class="fil1" d="M932.84 2176.32c-0.46,61.17 -0.92,122.36 -1.39,183.53 -0.21,28.8 44.52,28.83 44.74,0 0.46,-61.17 0.93,-122.36 1.39,-183.53 0.22,-28.8 -44.52,-28.82 -44.74,0l0 0z"/>
  <path class="fil0" d="M2084.61 2297.47c0,47.84 -38.78,86.6 -86.6,86.6 -47.82,0 -86.61,-38.76 -86.61,-86.6 0,-47.83 38.79,-86.6 86.61,-86.6 47.82,0 86.6,38.77 86.6,86.6z"/>
  <path class="fil0" d="M3062.42 2297.47c0,47.84 -38.77,86.6 -86.6,86.6 -47.84,0 -86.61,-38.76 -86.61,-86.6 0,-47.83 38.77,-86.6 86.61,-86.6 47.83,0 86.6,38.77 86.6,86.6z"/>
  <path class="fil1" d="M2652.11 2149.73c-21.47,69.94 -91.46,121.93 -164.61,122.28 -73.16,0.36 -143.65,-50.95 -165.8,-120.67l330.41 -1.61z"/>
  <path class="fil1" d="M2625.34 2142.35c-18.8,58.11 -76.44,101.54 -137.84,101.91 -61.3,0.38 -119.67,-42.43 -139.03,-100.3 -8.92,11.7 -17.85,23.41 -26.77,35.13 96.28,-0.46 192.56,-0.94 288.83,-1.4 13.87,-0.06 27.71,-0.13 41.58,-0.21 35.7,-0.16 35.78,-55.67 0,-55.5 -96.28,0.48 -192.55,0.92 -288.83,1.4 -13.85,0.06 -27.71,0.13 -41.58,0.19 -17.21,0.09 -32.55,17.79 -26.75,35.14 27.14,81.15 105.82,141.62 192.55,141.07 86.68,-0.55 164.94,-61.02 191.38,-142.67 11.02,-34.06 -42.56,-48.66 -53.54,-14.76z"/>
  <path class="fil1" d="M2251.24 2075.3c7.36,-105.49 -78.71,-197.53 -184.21,-197.5 -105.51,0.01 -191.57,92.07 -184.18,197.56 1.11,15.67 12.59,29.08 29.1,29.08 14.88,0 30.18,-13.33 29.06,-29.08 -5.17,-73.98 50.39,-139.39 126.02,-139.4 75.59,-0.02 131.21,65.34 126.05,139.34 -1.1,15.69 14.14,29.08 29.08,29.08 16.64,0 27.98,-13.35 29.08,-29.08l0 0z"/>
  <path class="fil1" d="M3018.17 2019.06c0,74.42 -60.32,134.74 -134.72,134.74 -74.43,0 -134.75,-60.32 -134.75,-134.74 0,-74.41 60.32,-134.73 134.75,-134.73 74.4,0 134.72,60.32 134.72,134.73z"/>
  <path class="fil2" d="M2970.87 1975.34c0,24.15 -19.58,43.72 -43.71,43.72 -24.14,0 -43.71,-19.57 -43.71,-43.72 0,-24.14 19.57,-43.71 43.71,-43.71 24.13,0 43.71,19.57 43.71,43.71z"/>
  <path class="fil1" d="M1891.25 1988.82c-0.97,0.52 -1.94,1.03 -2.94,1.52 -2.79,1.27 -1.98,0.96 2.4,-0.94 -1.79,0.29 -3.71,1.37 -5.47,1.91 -3.98,1.21 -8.02,2.02 -12.13,2.57 2.57,-0.35 5.15,-0.69 7.73,-1.03 -6.09,0.68 -12.1,0.67 -18.18,-0.02 2.58,0.34 5.16,0.69 7.74,1.03 -3.28,-0.46 -6.53,-1.06 -9.74,-1.94 -1.59,-0.44 -3.17,-0.94 -4.72,-1.49 -0.52,-0.19 -1.05,-0.37 -1.57,-0.57 -2.79,-1.11 -1.85,-0.71 2.82,1.18 -2.18,-1.5 -4.94,-2.46 -7.25,-3.86 -1.27,-0.79 -2.52,-1.59 -3.74,-2.46 -5.09,-3.58 3.37,2.91 1.15,0.91 -2.05,-1.84 -4.1,-3.61 -6.02,-5.61 -1.02,-1.09 -1.99,-2.2 -2.99,-3.32 -3.73,-4.19 4.04,5.8 0.88,1.16 -1.69,-2.47 -3.31,-4.97 -4.73,-7.61 -0.6,-1.08 -1.1,-2.22 -1.68,-3.33 -0.96,-2.05 -0.48,-0.87 1.43,3.53 -0.38,-0.93 -0.73,-1.85 -1.06,-2.79 -2.67,-7.25 -6.52,-13.38 -13.38,-17.39 -6.23,-3.65 -15.4,-5.19 -22.39,-2.94 -13.98,4.54 -25.94,20.49 -20.32,35.78 9.87,26.86 28.95,48.99 55.58,60.23 28.63,12.08 60.52,10.2 87.94,-4.31 13.45,-7.11 18.7,-26.96 10.43,-39.79 -8.83,-13.68 -25.38,-18.04 -39.79,-10.42l0 0z"/>
  <path class="fil0" d="M3821.25 2343.34c0,47.84 -38.77,86.6 -86.6,86.6 -47.82,0 -86.61,-38.76 -86.61,-86.6 0,-47.83 38.79,-86.6 86.61,-86.6 47.83,0 86.6,38.77 86.6,86.6z"/>
  <path class="fil0" d="M4799.06 2343.34c0,47.84 -38.79,86.6 -86.61,86.6 -47.82,0 -86.58,-38.76 -86.58,-86.6 0,-47.83 38.76,-86.6 86.58,-86.6 47.82,0 86.61,38.77 86.61,86.6z"/>
  <path class="fil1" d="M4070.32 2208.18c-10.61,11.89 -19.95,25.45 -23.8,40.91 -3.86,15.46 -1.5,33.09 8.98,45.08 13.79,15.82 38.06,18.24 58.35,12.83 20.28,-5.42 38.21,-17.17 57.24,-26.07 30.05,-14.05 64.82,-20.97 96.65,-11.62 21.55,6.34 40.34,19.61 61.1,28.17 20.75,8.56 46.22,11.71 64.42,-1.45 15.49,-11.21 21.82,-32.22 18.98,-51.13 -2.85,-18.92 -13.55,-35.87 -26.45,-49.97 -79.47,-86.96 -240.06,-71 -315.47,13.25z"/>
  <path class="fil1" d="M3657.69 1974.76c-22.97,85.45 18.16,183.57 100.2,220.56 85.52,38.54 188.52,10.81 238.76,-69.48 26.83,-42.89 35.15,-95.28 24.18,-144.45 -8.17,-36.74 -64.62,-21.19 -56.43,15.56 8.5,38.07 -1.7,79.5 -25.67,110.2 -24.92,31.93 -63.72,48.13 -103.74,47.26 -83.71,-1.81 -142.41,-83.97 -120.89,-164.1 9.79,-36.4 -46.64,-51.94 -56.41,-15.55l0 0z"/>
  <path class="fil1" d="M4445.11 1974.76c-22.97,85.45 18.15,183.57 100.2,220.56 85.52,38.54 188.54,10.81 238.76,-69.48 26.83,-42.89 35.15,-95.28 24.18,-144.45 -8.19,-36.74 -64.62,-21.19 -56.42,15.56 8.47,38.07 -1.71,79.5 -25.68,110.2 -24.93,31.93 -63.72,48.13 -103.76,47.26 -83.68,-1.81 -142.4,-83.97 -120.85,-164.1 9.78,-36.4 -46.67,-51.94 -56.43,-15.55l0 0z"/>
  <path class="fil0" d="M429.22 3703.76c0,47.83 -38.77,86.6 -86.6,86.6 -47.83,0 -86.61,-38.77 -86.61,-86.6 0,-47.84 38.78,-86.61 86.61,-86.61 47.83,0 86.6,38.77 86.6,86.61z"/>
  <path class="fil0" d="M1407.02 3703.76c0,47.83 -38.76,86.6 -86.6,86.6 -47.83,0 -86.6,-38.77 -86.6,-86.6 0,-47.84 38.77,-86.61 86.6,-86.61 47.84,0 86.6,38.77 86.6,86.61z"/>
  <path class="fil1" d="M646.92 3495.94c-38.57,64.11 -9.88,146.67 59.75,173.07 65.15,24.75 137.2,-16.44 154.44,-82.63 -17.71,2.32 -35.43,4.63 -53.14,6.95 14.79,30.71 38.22,59.57 69.96,73.61 34.5,15.26 74.56,9.1 104.8,-12.94 29.67,-21.65 50.5,-54.93 53.18,-91.97 2.75,-38.09 -16.03,-76.4 -42.61,-102.7 -26.63,-26.35 -67.78,14.75 -41.12,41.13 31,30.69 35.63,78.67 -2.52,105.97 -40.26,28.81 -74.17,-6.54 -91.47,-42.46 -11.07,-22.95 -47.15,-16.09 -53.15,6.95 -9.01,34.57 -43.96,56.1 -78.52,43.62 -37.09,-13.39 -49.08,-56.5 -29.38,-89.25 19.35,-32.15 -30.92,-61.41 -50.22,-29.35l0 0z"/>
  <path class="fil1" d="M319.11 3487.15c-2.89,-59.32 40.8,-112.91 101.68,-115.24 60.02,-2.31 110.49,44.9 112.04,105.13 0.96,37.36 59.13,37.51 58.16,0 -2.34,-90.83 -78.1,-166.72 -170.2,-163.29 -91.23,3.39 -164.3,81.72 -159.84,173.4 1.81,37.26 59.98,37.48 58.16,0l0 0z"/>
  <path class="fil1" d="M1390.14 3487.15c4.46,-91.66 -68.62,-170.01 -159.84,-173.4 -92.1,-3.43 -167.87,72.46 -170.2,163.29 -0.97,37.45 57.19,37.42 58.16,0 1.55,-60.33 52.02,-107.29 112.04,-105.13 60.89,2.19 104.55,56.03 101.67,115.24 -1.81,37.42 56.34,37.33 58.17,0l0 0z"/>
  <path class="fil0" d="M2084.61 3671.01c0,47.83 -38.78,86.6 -86.6,86.6 -47.82,0 -86.61,-38.77 -86.61,-86.6 0,-47.84 38.79,-86.61 86.61,-86.61 47.82,0 86.6,38.77 86.6,86.61z"/>
  <path class="fil0" d="M3062.42 3671.01c0,47.83 -38.77,86.6 -86.6,86.6 -47.84,0 -86.61,-38.77 -86.61,-86.6 0,-47.84 38.77,-86.61 86.61,-86.61 47.83,0 86.6,38.77 86.6,86.61z"/>
  <path class="fil1" d="M2652.11 3523.26c-21.47,69.94 -91.46,121.94 -164.61,122.28 -73.16,0.36 -143.65,-50.94 -165.8,-120.67l330.41 -1.61z"/>
  <path class="fil1" d="M2625.34 3515.89c-18.8,58.1 -76.44,101.52 -137.84,101.9 -61.3,0.37 -119.67,-42.43 -139.03,-100.3 -8.92,11.7 -17.85,23.41 -26.77,35.13 96.28,-0.46 192.56,-0.93 288.83,-1.4 13.87,-0.08 27.71,-0.13 41.58,-0.19 35.7,-0.19 35.78,-55.69 0,-55.52 -96.28,0.46 -192.55,0.92 -288.83,1.4 -13.85,0.07 -27.71,0.13 -41.58,0.19 -17.21,0.09 -32.55,17.79 -26.75,35.14 27.14,81.15 105.82,141.62 192.55,141.07 86.68,-0.55 164.94,-61.01 191.38,-142.67 11.02,-34.06 -42.56,-48.66 -53.54,-14.75z"/>
  <path class="fil1" d="M1906.19 3352.83c-7.37,105.5 78.71,197.52 184.22,197.51 105.5,-0.02 191.55,-92.07 184.16,-197.57 -1.11,-15.67 -12.59,-29.08 -29.08,-29.08 -14.89,0 -30.19,13.34 -29.08,29.08 5.18,73.99 -50.38,139.39 -126,139.41 -75.61,0.02 -131.22,-65.35 -126.06,-139.35 1.09,-15.68 -14.15,-29.08 -29.08,-29.08 -16.66,0 -27.99,13.35 -29.08,29.08l0 0z"/>
  <path class="fil1" d="M3009.48 3352.83c5.14,74 -50.47,139.37 -126.06,139.35 -75.62,-0.02 -131.19,-65.41 -126.01,-139.41 1.12,-15.68 -14.16,-29.08 -29.08,-29.08 -16.64,0 -27.98,13.35 -29.08,29.08 -7.4,105.5 78.65,197.55 184.17,197.57 105.5,0.01 191.57,-92.01 184.2,-197.51 -1.08,-15.67 -12.58,-29.08 -29.06,-29.08 -14.9,0 -30.19,13.34 -29.08,29.08l0 0z"/>
  <path class="fil0" d="M2586.45 3584.4c2.68,42.34 5.17,86.1 -9.47,125.91 -14.68,39.8 -51.33,74.77 -93.71,73.46 -41.29,-1.27 -75.25,-36.52 -88.4,-75.67 -13.14,-39.16 -9.95,-81.68 -6.58,-122.85l198.16 -0.85z"/>
  <path class="fil1" d="M2564.08 3584.4c3.49,55.21 8.95,127.01 -41.69,164 -19.2,13.98 -42.36,17.37 -62.91,6.42 -21.6,-11.53 -36.95,-32.98 -44.17,-56.15 -11.39,-36.61 -7.71,-75.81 -4.65,-113.42 -7.46,7.46 -14.91,14.91 -22.37,22.37 57.86,-0.25 115.74,-0.49 173.6,-0.73 8.18,-0.05 16.37,-0.08 24.56,-0.12 28.78,-0.11 28.84,-44.86 0,-44.74 -57.86,0.25 -115.74,0.51 -173.62,0.75 -8.17,0.04 -16.35,0.07 -24.54,0.1 -12.81,0.06 -21.39,10.25 -22.37,22.37 -3.3,40.53 -6.05,82.22 5.22,121.84 9.52,33.42 30.18,63.97 59.68,82.78 30.23,19.28 67.18,20.83 99.4,5.68 31.68,-14.9 54.73,-44.56 67.29,-76.59 16.68,-42.5 14.13,-89.9 11.31,-134.56 -0.76,-12.05 -9.74,-22.37 -22.37,-22.37 -11.53,0 -23.13,10.26 -22.37,22.37z"/>
  <path class="fil1" d="M2468.57 3607.29c-0.25,28.29 -0.48,56.58 -0.72,84.85 -0.09,11.73 10.36,22.92 22.37,22.37 12.21,-0.53 22.28,-9.82 22.37,-22.37 0.23,-28.27 0.48,-56.56 0.7,-84.85 0.1,-11.72 -10.35,-22.92 -22.36,-22.37 -12.21,0.54 -22.26,9.82 -22.36,22.37l0 0z"/>
  <path class="fil0" d="M3821.25 3716.88c0,47.83 -38.77,86.6 -86.6,86.6 -47.82,0 -86.61,-38.77 -86.61,-86.6 0,-47.84 38.79,-86.61 86.61,-86.61 47.83,0 86.6,38.77 86.6,86.61z"/>
  <path class="fil0" d="M4799.06 3716.88c0,47.83 -38.79,86.6 -86.61,86.6 -47.82,0 -86.58,-38.77 -86.58,-86.6 0,-47.84 38.76,-86.61 86.58,-86.61 47.82,0 86.61,38.77 86.61,86.61z"/>
  <path class="fil1" d="M3984.39 3461.34c-79.57,-74.16 -188.31,-106.66 -295.55,-91.25 -15.66,2.25 -24.25,22.14 -20.43,36 4.61,16.82 20.28,22.68 35.98,20.43 85.44,-12.26 175.81,17.66 238.64,76.2 27.51,25.65 69,-15.64 41.36,-41.38l0 0z"/>
  <path class="fil1" d="M3957.05 3453.72c-104.84,-3.75 -210.32,27.29 -296.01,87.91 -12.9,9.1 -18.97,25.54 -10.51,40.02 7.45,12.75 27.08,19.67 40.04,10.5 78.02,-55.17 170.93,-83.33 266.48,-79.92 37.67,1.36 37.62,-57.17 0,-58.51l0 0z"/>
  <path class="fil1" d="M4504.11 3502.72c62.81,-58.54 153.16,-88.46 238.6,-76.2 15.62,2.25 31.43,-3.85 36,-20.43 3.77,-13.74 -4.7,-33.75 -20.43,-36 -107.26,-15.41 -216,17.09 -295.58,91.25 -27.6,25.72 13.84,67.05 41.41,41.38l0 0z"/>
  <path class="fil1" d="M4490.05 3512.23c95.56,-3.41 188.46,24.75 266.48,79.92 12.91,9.13 32.54,2.32 40.04,-10.5 8.56,-14.64 2.43,-30.88 -10.5,-40.02 -85.69,-60.62 -191.16,-91.66 -296.02,-87.91 -37.53,1.34 -37.71,59.87 0,58.51l0 0z"/>
  <path class="fil1" d="M4070.32 3581.73c-10.61,11.87 -19.95,25.44 -23.8,40.89 -3.86,15.46 -1.5,33.09 8.98,45.09 13.79,15.81 38.06,18.23 58.35,12.81 20.28,-5.41 38.21,-17.16 57.24,-26.06 30.05,-14.04 64.82,-20.97 96.65,-11.62 21.55,6.34 40.34,19.61 61.1,28.17 20.75,8.56 46.22,11.71 64.42,-1.45 15.49,-11.2 21.82,-32.22 18.98,-51.13 -2.85,-18.93 -13.55,-35.85 -26.45,-49.97 -79.47,-86.96 -240.06,-70.99 -315.47,13.27z"/>
 </g>
</svg>
